<?xml version="1.0" standalone="no"?>
<!DOCTYPE svg PUBLIC "-//W3C//DTD SVG 20010904//EN"
 "http://www.w3.org/TR/2001/REC-SVG-20010904/DTD/svg10.dtd">
<svg version="1.0" xmlns="http://www.w3.org/2000/svg"
 width="905.000000pt" height="275.000000pt" viewBox="0 0 905.000000 275.000000"
 preserveAspectRatio="xMidYMid meet">

<g transform="translate(0.000000,275.000000) scale(0.100000,-0.100000)"
fill="#000000" stroke="none">
<path d="M2079 2573 c-100 -114 -209 -310 -264 -479 -58 -175 -70 -255 -70
-479 0 -213 10 -286 61 -470 34 -120 39 -127 54 -81 10 32 8 50 -14 139 -49
191 -59 398 -30 596 17 116 75 303 125 402 36 74 139 227 170 255 21 19 21 19
56 -21 130 -148 242 -380 289 -595 27 -126 25 -360 -5 -500 -29 -140 -72 -263
-132 -385 -50 -100 -150 -250 -180 -268 -13 -8 -40 9 -127 80 -180 145 -373
226 -619 258 -385 51 -755 -24 -1032 -209 -54 -35 -128 -94 -167 -130 l-69
-66 67 -64 c168 -162 392 -270 663 -319 159 -29 422 -30 570 -3 249 45 458
141 645 296 l60 51 79 -65 c258 -209 601 -317 966 -303 237 10 424 52 601 136
127 61 208 115 298 202 l71 68 -50 51 c-195 201 -494 330 -835 360 -167 15
-351 -1 -490 -41 -102 -30 -200 -64 -200 -70 0 -4 7 -12 15 -19 18 -15 49 -11
177 23 143 38 254 50 408 44 290 -11 560 -120 810 -327 l25 -20 -30 -26 c-65
-55 -183 -129 -279 -175 -383 -182 -835 -171 -1238 32 -78 39 -196 115 -245
158 l-23 19 80 107 c130 173 235 418 277 647 22 122 21 340 -1 473 -32 190
-118 400 -226 553 -52 74 -176 212 -190 212 -5 0 -27 -21 -51 -47z m-714
-1638 c263 -40 529 -148 676 -275 l43 -37 -29 -27 c-45 -40 -182 -130 -250
-164 -88 -44 -222 -89 -338 -114 -136 -29 -407 -31 -541 -5 -114 23 -229 60
-325 103 -81 38 -253 148 -286 184 l-20 22 35 30 c171 146 412 253 645 287 97
14 282 12 390 -4z"/>
<path d="M7654 2180 c-30 -12 -64 -58 -64 -86 0 -36 20 -71 47 -83 55 -25 110
-6 138 49 22 43 18 68 -14 101 -30 30 -65 36 -107 19z"/>
<path d="M8614 2180 c-30 -12 -64 -58 -64 -86 0 -76 86 -122 148 -78 100 70
28 210 -84 164z"/>
<path d="M4880 2026 c0 -130 5 -139 73 -140 l42 -1 9 83 8 82 94 0 94 0 0
-369 0 -368 -32 -7 c-52 -10 -80 -33 -76 -64 l3 -27 178 -3 177 -2 11 26 c12
34 8 58 -11 61 -8 1 -32 4 -52 8 l-38 6 0 369 0 370 89 0 89 0 6 -31 c3 -17 6
-49 6 -71 0 -35 3 -40 35 -54 42 -17 74 -18 79 -1 3 6 7 65 10 130 l5 117
-399 0 -400 0 0 -114z"/>
<path d="M6734 2104 c-8 -44 4 -54 64 -54 l42 0 0 -369 0 -369 -34 -6 c-53
-10 -79 -36 -71 -69 l7 -27 197 2 196 3 3 43 c3 42 3 42 -30 42 -18 0 -50 3
-70 6 l-38 7 0 158 0 159 150 0 150 0 0 46 0 47 -150 -7 -150 -7 0 170 0 171
150 0 150 0 0 -39 c0 -76 10 -102 47 -118 55 -23 69 -12 77 59 3 33 6 90 6
124 l0 64 -345 0 -344 0 -7 -36z"/>
<path d="M8089 2063 c-12 -3 -21 -24 -29 -71 -18 -100 -18 -102 -48 -102 -51
0 -71 -11 -77 -42 -8 -35 1 -44 57 -53 l38 -7 0 -207 c0 -242 9 -291 65 -340
19 -16 51 -33 71 -37 112 -21 266 46 246 106 -12 36 -22 39 -65 19 -58 -26
-100 -24 -134 5 l-28 24 -3 221 -3 221 95 0 95 0 7 34 c10 57 7 59 -99 57
l-97 -2 0 90 0 91 -37 -1 c-21 -1 -45 -3 -54 -6z"/>
<path d="M5917 1886 c-93 -33 -170 -113 -204 -211 -26 -74 -23 -213 6 -287 27
-68 86 -133 149 -160 102 -45 265 -30 352 33 43 31 48 45 27 73 -13 17 -16 17
-81 -3 -114 -35 -195 -25 -253 31 -30 29 -63 105 -63 145 0 10 46 13 213 15
l212 3 9 68 c25 187 -74 307 -254 306 -41 0 -92 -6 -113 -13z m163 -94 c37
-27 60 -80 60 -139 l0 -53 -146 0 -147 0 6 50 c16 135 135 209 227 142z"/>
<path d="M7623 1890 c-99 -14 -103 -17 -103 -54 0 -33 1 -34 50 -41 l50 -7 0
-244 0 -244 -28 0 c-42 0 -74 -27 -70 -58 l3 -27 170 0 170 0 3 36 3 37 -50 7
-51 7 0 293 c0 323 3 306 -63 304 -18 -1 -56 -5 -84 -9z"/>
<path d="M8583 1890 c-99 -14 -103 -17 -103 -54 0 -33 1 -34 50 -41 l50 -7 0
-244 0 -244 -28 0 c-42 0 -74 -27 -70 -58 l3 -27 168 -3 167 -2 10 25 c18 46
13 52 -45 60 l-55 6 0 294 c0 323 3 306 -63 304 -18 -1 -56 -5 -84 -9z"/>
<path d="M910 1800 c0 -23 7 -76 16 -118 59 -291 314 -510 609 -524 l60 -3 -2
76 c-5 215 -149 432 -356 534 -92 45 -205 75 -288 75 -39 0 -39 0 -39 -40z
m227 -51 c131 -43 261 -153 331 -279 36 -65 72 -178 72 -227 l0 -34 -47 7
c-244 35 -447 216 -507 450 -9 34 -16 74 -16 89 0 28 1 28 52 22 28 -4 80 -16
115 -28z"/>
<path d="M3240 1825 c-132 -26 -245 -88 -340 -185 -114 -117 -178 -255 -188
-408 l-5 -84 59 7 c147 16 225 41 323 103 119 74 216 193 265 322 26 70 52
220 42 245 -7 19 -64 19 -156 0z m95 -97 c-18 -130 -86 -259 -187 -352 -98
-91 -200 -140 -335 -161 l-43 -7 0 39 c0 162 153 384 320 466 81 40 165 65
218 66 l34 1 -7 -52z"/>
<path d="M4907 814 c-4 -4 0 -12 7 -18 21 -16 3 -195 -21 -213 -14 -11 -10
-13 27 -13 37 0 41 2 27 13 -14 10 -16 24 -10 95 3 46 9 79 14 75 4 -4 21 -46
37 -93 16 -47 35 -85 42 -85 8 0 27 41 45 95 18 52 35 88 38 80 3 -8 8 -47 11
-87 5 -62 4 -73 -11 -82 -14 -8 -7 -10 32 -10 28 1 43 3 33 6 -20 5 -25 24
-33 136 -7 80 -6 87 11 87 13 0 15 3 7 11 -6 6 -21 9 -34 7 -21 -3 -29 -17
-58 -101 -18 -54 -35 -96 -38 -94 -2 3 -19 47 -37 98 -29 80 -37 94 -58 97
-13 2 -27 0 -31 -4z"/>
<path d="M5416 812 c-3 -5 -22 -56 -42 -113 -20 -57 -43 -110 -52 -116 -13
-11 -10 -13 24 -13 24 0 34 3 26 9 -9 5 -11 17 -6 34 6 25 10 27 60 27 50 0
54 -2 60 -27 5 -17 3 -28 -4 -31 -25 -8 -1 -18 34 -14 24 3 32 7 23 13 -8 4
-32 59 -54 120 -37 105 -55 133 -69 111z m38 -96 c9 -27 16 -51 16 -53 0 -2
-20 -3 -45 -3 l-44 0 21 60 c12 33 25 57 29 53 3 -5 14 -30 23 -57z"/>
<path d="M5715 795 c-14 -13 -25 -33 -25 -44 0 -20 36 -55 89 -83 33 -18 42
-53 19 -76 -16 -16 -78 -15 -82 1 -16 51 -18 53 -27 22 -11 -40 1 -50 62 -50
41 0 54 4 70 24 36 45 17 88 -55 122 -61 29 -60 81 2 87 24 3 31 -1 34 -18 4
-29 22 -30 26 -1 4 29 -12 41 -56 41 -22 0 -41 -8 -57 -25z"/>
<path d="M6012 800 c-23 -21 -28 -55 -13 -79 5 -7 31 -25 57 -40 53 -28 66
-57 39 -85 -21 -20 -74 -21 -80 -1 -16 50 -17 51 -27 22 -13 -36 -3 -47 48
-53 49 -6 85 12 97 49 12 38 -9 68 -67 96 -35 16 -46 27 -46 44 0 31 18 47 52
47 21 0 28 -5 28 -19 0 -11 4 -22 9 -25 13 -8 20 41 8 53 -19 19 -81 13 -105
-9z"/>
<path d="M6360 796 c-4 -13 -23 -63 -40 -112 -17 -49 -38 -95 -47 -101 -14
-11 -11 -13 23 -13 24 0 34 3 26 9 -9 5 -11 17 -6 34 6 25 10 27 60 27 47 0
56 -3 63 -22 7 -17 5 -26 -7 -35 -13 -11 -8 -13 34 -12 36 0 44 3 29 9 -14 5
-31 40 -59 124 -40 117 -58 139 -76 92z m44 -80 c9 -27 16 -51 16 -53 0 -2
-18 -3 -40 -3 -22 0 -40 3 -40 7 0 21 35 112 41 106 3 -5 14 -30 23 -57z"/>
<path d="M6690 807 c-35 -18 -70 -74 -70 -114 0 -100 87 -162 170 -120 19 10
25 21 26 47 0 18 5 35 12 38 27 9 10 22 -28 22 -40 0 -53 -13 -25 -24 9 -3 15
-18 15 -35 0 -34 -23 -46 -69 -36 -44 9 -64 38 -69 100 -4 50 -2 56 27 85 25
26 37 31 68 28 31 -2 39 -7 41 -25 5 -31 18 -29 26 4 5 17 3 29 -6 34 -20 13
-90 10 -118 -4z"/>
<path d="M6976 811 c-3 -5 1 -11 9 -15 12 -4 15 -26 15 -105 0 -85 -3 -102
-17 -110 -13 -8 7 -10 75 -11 91 0 92 0 92 24 0 34 -17 41 -24 10 -6 -23 -11
-25 -54 -22 l-47 3 -1 48 -1 47 38 0 c53 0 59 18 7 22 l-43 3 0 45 0 45 48 3
c42 3 47 1 47 -17 0 -12 5 -21 10 -21 6 0 10 14 10 30 l0 30 -79 0 c-44 0 -82
-4 -85 -9z"/>
<path d="M7529 799 c-17 -17 -20 -30 -17 -64 3 -26 0 -49 -8 -60 -39 -53 9
-123 76 -110 19 3 50 7 67 7 27 1 31 4 20 16 -6 8 -12 29 -13 46 0 17 -4 39
-8 49 -6 12 -4 17 8 17 9 0 16 5 16 10 0 6 -13 10 -30 10 -35 0 -34 3 -14 -45
21 -50 6 -64 -34 -30 -40 34 -68 105 -53 134 13 23 56 29 64 9 2 -7 8 -10 12
-6 4 4 5 14 2 23 -9 22 -63 19 -88 -6z m44 -165 c38 -35 41 -54 9 -54 -32 0
-62 29 -62 61 0 16 3 29 8 29 4 0 24 -16 45 -36z"/>
<path d="M8052 803 c-48 -42 -32 -83 45 -125 44 -23 56 -49 37 -77 -12 -17
-24 -21 -52 -19 -32 3 -37 7 -40 31 -4 35 -22 25 -22 -12 0 -30 18 -41 71 -41
38 0 79 36 79 68 0 37 -7 45 -65 79 -27 16 -51 37 -53 47 -5 25 17 46 49 46
22 0 30 -6 35 -25 8 -34 24 -32 24 4 0 44 -68 58 -108 24z"/>
<path d="M8315 810 c-3 -5 1 -10 9 -10 14 0 16 -17 16 -105 0 -88 -3 -106 -17
-114 -14 -8 -7 -10 32 -10 39 0 46 2 33 10 -12 6 -18 22 -18 44 0 33 2 35 34
35 94 0 122 119 35 149 -40 14 -116 14 -124 1z m123 -26 c26 -18 30 -65 6 -88
-8 -9 -29 -16 -45 -16 -29 0 -29 0 -29 60 0 56 2 60 23 60 12 0 33 -7 45 -16z"/>
<path d="M8692 803 c-5 -10 -24 -61 -42 -113 -18 -52 -40 -101 -48 -107 -13
-11 -9 -13 24 -13 26 0 34 3 25 9 -9 6 -11 18 -7 35 6 24 10 26 61 26 51 0 55
-2 61 -26 4 -17 2 -29 -7 -35 -9 -6 4 -8 36 -8 34 0 44 3 30 8 -14 6 -31 40
-60 121 -40 114 -56 137 -73 103z m53 -120 c6 -22 3 -23 -39 -23 l-45 0 21 63
22 62 17 -40 c9 -22 20 -50 24 -62z"/>
<path d="M5395 315 c0 -102 1 -105 23 -105 12 0 22 5 22 10 0 6 -4 10 -10 10
-6 0 -10 38 -10 95 0 69 -3 95 -12 95 -10 0 -13 -28 -13 -105z"/>
<path d="M7065 410 c-4 -6 -1 -10 4 -10 7 0 11 -23 11 -55 0 -30 5 -55 10 -55
17 0 12 117 -5 123 -8 4 -17 2 -20 -3z"/>
<path d="M5545 399 c9 -13 9 -158 1 -166 -13 -13 -5 -23 19 -23 27 0 32 9 14
27 -6 6 -9 43 -7 92 3 73 1 81 -15 81 -10 0 -15 -5 -12 -11z"/>
<path d="M4880 340 c0 -5 4 -10 9 -10 5 0 18 -26 28 -57 11 -31 24 -58 29 -60
5 -2 16 14 24 34 l14 38 14 -37 c8 -21 18 -38 23 -38 4 0 18 27 30 60 12 33
26 60 30 60 5 0 9 5 9 10 0 6 -11 10 -24 10 -18 0 -23 -4 -20 -17 3 -10 -1
-36 -9 -58 l-14 -39 -15 46 c-12 33 -13 49 -5 57 8 8 4 11 -16 11 -28 0 -34
-9 -17 -26 10 -10 -8 -74 -21 -74 -9 0 -28 71 -22 86 4 10 -3 14 -21 14 -14 0
-26 -4 -26 -10z"/>
<path d="M5197 332 c-23 -25 -22 -85 1 -105 19 -18 40 -21 66 -11 26 10 18 21
-12 16 -30 -4 -59 19 -47 38 3 5 24 10 46 10 32 0 39 4 39 19 0 46 -62 67 -93
33z m61 -4 c23 -23 13 -38 -23 -38 -39 0 -48 21 -17 39 22 13 26 13 40 -1z"/>
<path d="M5690 339 c0 -5 5 -9 10 -9 6 0 10 -22 10 -50 0 -27 -4 -50 -10 -50
-5 0 -10 -4 -10 -10 0 -5 14 -10 31 -10 26 0 29 2 20 14 -7 8 -11 34 -9 58 3
39 6 43 31 46 17 2 27 -2 28 -10 1 -7 3 -27 5 -45 2 -18 -1 -35 -6 -38 -18
-11 -10 -25 15 -25 14 0 25 5 25 10 0 6 -4 10 -10 10 -5 0 -10 26 -12 58 l-3
57 -57 2 c-32 1 -58 -3 -58 -8z"/>
<path d="M5947 332 c-23 -25 -22 -85 1 -105 19 -18 40 -21 66 -11 25 10 19 22
-9 16 -27 -5 -55 12 -55 34 0 10 14 14 46 14 45 0 46 1 39 27 -11 46 -58 59
-88 25z m57 -8 c25 -24 19 -34 -19 -34 -24 0 -35 5 -35 15 0 11 23 32 37 35 1
0 9 -7 17 -16z"/>
<path d="M6152 338 c-20 -20 -14 -38 23 -60 42 -24 40 -44 -4 -41 -20 0 -31
-3 -28 -10 6 -19 53 -20 71 -2 26 26 24 29 -34 74 -19 15 -22 22 -14 31 9 9
17 9 34 0 18 -10 21 -9 18 2 -6 17 -50 22 -66 6z"/>
<path d="M6343 343 c-24 -9 -13 -42 22 -69 41 -31 36 -48 -11 -41 -40 7 -46
-10 -7 -19 59 -15 86 44 34 74 -39 21 -37 48 3 44 17 -2 25 1 21 7 -6 11 -40
13 -62 4z"/>
<path d="M6670 331 c-11 -21 2 -41 41 -61 10 -6 19 -18 19 -27 0 -12 -7 -14
-35 -10 -41 7 -48 -9 -8 -19 32 -8 57 6 61 34 3 16 -6 28 -32 43 -20 12 -36
25 -36 29 0 14 32 21 45 10 14 -11 30 2 18 14 -14 14 -63 5 -73 -13z"/>
<path d="M6873 343 c-13 -5 -18 -33 -7 -33 4 0 12 7 18 16 15 20 46 8 46 -17
0 -13 -7 -19 -24 -19 -29 0 -58 -26 -54 -48 5 -25 35 -39 57 -25 14 9 21 9 30
0 8 -8 14 -8 23 1 9 9 9 12 0 12 -8 0 -12 17 -12 48 0 26 -5 53 -12 60 -12 12
-43 15 -65 5z m57 -82 c0 -23 -37 -38 -53 -22 -7 7 -6 15 3 26 18 22 50 19 50
-4z"/>
<path d="M7236 334 c-39 -39 -28 -108 19 -120 57 -14 101 79 57 119 -23 21
-56 22 -76 1z m58 -10 c19 -18 21 -65 4 -82 -29 -29 -68 -2 -68 47 0 20 24 51
40 51 5 0 16 -7 24 -16z"/>
<path d="M7430 339 c0 -5 5 -9 10 -9 6 0 10 -22 10 -50 0 -27 -4 -50 -10 -50
-5 0 -10 -4 -10 -10 0 -5 14 -10 30 -10 17 0 30 5 30 10 0 6 -5 10 -11 10 -6
0 -9 19 -7 48 3 43 6 47 29 50 25 3 27 0 31 -43 2 -26 0 -49 -4 -51 -17 -11
-7 -24 17 -24 14 0 25 5 25 10 0 6 -4 10 -10 10 -5 0 -10 24 -10 54 0 61 -3
63 -77 64 -24 1 -43 -3 -43 -9z"/>
<path d="M7073 235 c-19 -21 -16 -25 17 -25 28 0 29 2 18 20 -15 23 -19 24
-35 5z"/>
</g>
</svg>
